<svg version="1.1" id="Layer_1" xmlns="http://www.w3.org/2000/svg" xmlns:xlink="http://www.w3.org/1999/xlink" x="0px" y="0px"
	 width="100%" viewBox="0 0 256 256" enable-background="new 0 0 256 256" xml:space="preserve">
<path fill="#FEFFFF" opacity="1.000000" stroke="none" 
	d="
M20.000000,257.000000 
	C13.669859,257.000000 7.339717,257.000000 1.007182,257.000000 
	C1.004788,171.712875 1.004788,86.425735 1.004788,1.069302 
	C86.244072,1.069302 171.488220,1.069302 256.866180,1.069302 
	C256.866180,86.333199 256.866180,171.666565 256.866180,257.000000 
	C230.243713,257.000000 203.590515,257.000000 176.656036,256.693695 
	C178.813797,255.473984 181.252823,254.560577 184.125259,253.753876 
	C192.905823,251.776993 201.258438,249.714920 209.597290,247.598663 
	C212.701508,246.810852 215.725922,245.561996 218.870850,245.114044 
	C224.231964,244.350433 229.260376,243.290253 232.396423,237.994858 
	C232.874817,237.741974 233.015015,237.491486 233.421265,237.098877 
	C238.267639,235.391602 242.718277,233.753830 247.118286,232.113953 
	C247.067642,232.111832 247.100876,232.207596 247.330811,232.143066 
	C247.560745,232.078522 247.922714,231.766907 248.232010,231.657867 
	C250.362579,229.038528 252.183853,226.528229 254.272614,223.742188 
	C254.969254,212.984100 255.398392,202.501770 255.903564,191.555557 
	C255.933243,185.399536 255.886917,179.707382 255.911865,173.550476 
	C255.930237,163.062256 255.877335,153.038803 255.892975,142.550568 
	C255.916382,136.393799 255.871277,130.701797 255.892090,124.544769 
	C255.912903,116.057709 255.867828,108.035660 255.888916,99.548393 
	C255.911972,81.055580 255.868835,63.027996 255.887894,44.535538 
	C255.961716,37.112690 256.109528,30.151648 255.953079,23.197447 
	C255.718353,12.764223 247.329102,4.352667 236.922653,4.045348 
	C232.623108,3.918376 228.313934,4.117588 223.543884,4.104536 
	C199.047989,4.079061 175.017334,4.117498 150.522171,4.098142 
	C142.699036,4.080843 135.340424,4.121339 127.517868,4.105052 
	C121.030067,4.089928 115.006218,4.131588 108.518188,4.115036 
	C99.032249,4.094084 90.010483,4.131342 80.524460,4.107108 
	C67.628632,4.021811 55.196541,3.921690 42.765686,4.005503 
	C36.278542,4.049241 30.919207,6.583643 26.935709,12.338473 
	C25.053389,17.057198 23.406311,21.512541 21.467472,26.208118 
	C20.713858,29.194921 20.252003,31.941490 19.419163,34.759552 
	C16.360657,43.727325 13.654656,52.618130 11.018946,61.529728 
	C10.796052,62.283348 11.072642,63.176437 11.062895,64.004089 
	C11.055664,64.617889 11.201359,65.461639 10.868172,65.809265 
	C5.728056,71.172256 7.115649,77.802917 7.115685,84.558105 
	C6.357462,87.984451 5.104087,91.033310 5.096145,94.085419 
	C4.972305,141.676453 4.986051,189.267914 5.031344,236.859238 
	C5.039389,245.311523 9.115548,251.355438 16.625774,255.144394 
	C17.771063,255.722198 18.876263,256.379486 20.000000,257.000000 
z"/>
<path fill="#1F5A94" opacity="1.000000" stroke="none" 
	d="
M183.691849,253.647171 
	C181.252823,254.560577 178.813797,255.473984 176.187378,256.693695 
	C124.312439,257.000000 72.624878,257.000000 20.468658,257.000000 
	C18.876263,256.379486 17.771063,255.722198 16.625774,255.144394 
	C9.115548,251.355438 5.039389,245.311523 5.031344,236.859238 
	C4.986051,189.267914 4.972305,141.676453 5.096145,94.085419 
	C5.104087,91.033310 6.357462,87.984451 7.359138,84.402023 
	C8.120637,83.236031 8.554466,82.602112 9.323692,82.231102 
	C9.776723,84.477417 9.996191,86.460770 9.997065,88.444221 
	C10.017757,135.440277 10.012119,182.436325 10.018072,229.432388 
	C10.019927,244.070175 17.875267,251.985275 32.417339,251.987427 
	C81.079926,251.994614 129.742523,251.979584 178.405045,252.034363 
	C180.281448,252.036469 182.157120,252.669708 183.905853,253.146011 
	C183.778580,253.283157 183.691849,253.647171 183.691849,253.647171 
z"/>
<path fill="#5489A7" opacity="1.000000" stroke="none" 
	d="
M254.005127,224.017944 
	C252.183853,226.528229 250.362579,229.038528 248.101166,231.534195 
	C247.474319,231.748917 247.287598,231.978256 247.100876,232.207596 
	C247.100876,232.207596 247.067642,232.111832 246.675629,232.071976 
	C243.498322,232.353439 240.714172,232.941071 237.927567,232.952896 
	C219.619522,233.030624 201.310959,232.984161 182.948914,232.637497 
	C178.027054,229.402481 173.247726,226.343292 168.266754,223.658188 
	C162.790176,220.705902 157.998077,217.250229 156.364258,210.961151 
	C159.151382,211.281525 161.575455,211.640762 164.349594,212.035370 
	C166.710953,213.494431 168.575089,215.216675 170.757812,216.292572 
	C183.527237,222.586868 197.063583,225.525940 211.128067,222.861053 
	C224.071655,220.408569 236.795441,216.798508 249.623123,213.727921 
	C251.055847,213.384964 252.534637,213.234436 253.994751,213.453308 
	C254.000015,217.280624 254.002579,220.649277 254.005127,224.017944 
z"/>
<path fill="#6C8FA3" opacity="1.000000" stroke="none" 
	d="
M27.170952,12.075091 
	C30.919207,6.583643 36.278542,4.049241 42.765686,4.005503 
	C55.196541,3.921690 67.628632,4.021811 80.522308,4.462582 
	C80.654442,6.250175 80.324478,7.620800 79.538391,8.993565 
	C75.723228,9.001638 72.364189,9.007572 68.539963,9.008583 
	C63.718945,9.006158 59.363125,9.008657 54.539135,9.008131 
	C50.079899,9.004887 46.088398,8.967597 42.097885,9.014280 
	C37.589588,9.067021 35.035213,11.165308 36.164288,15.375049 
	C39.250866,26.883354 38.237560,39.451309 44.893333,50.259941 
	C44.523426,51.016136 44.261253,51.512535 43.635155,51.968582 
	C40.115677,49.391705 39.205647,53.618732 36.711067,53.847523 
	C35.911072,52.871735 35.537121,51.946266 34.908707,51.250702 
	C32.192398,48.244183 30.942205,43.642960 26.028107,42.521828 
	C26.014982,35.143208 25.893740,28.229708 26.059248,21.323084 
	C26.133291,18.233315 26.782669,15.157331 27.170952,12.075091 
z"/>
<path fill="#8FAAB9" opacity="1.000000" stroke="none" 
	d="
M150.986679,4.155936 
	C175.017334,4.117498 199.047989,4.079061 223.546829,4.458844 
	C224.344971,6.248267 224.674927,7.619469 224.604004,8.994484 
	C223.134506,9.002020 222.065903,9.005740 220.528931,9.006777 
	C199.707672,9.005820 179.354767,9.007549 158.541061,9.006096 
	C154.386017,9.000699 150.691788,8.998484 147.046341,8.661463 
	C148.392303,6.936416 149.689499,5.546176 150.986679,4.155936 
z"/>
<path fill="#416D93" opacity="1.000000" stroke="none" 
	d="
M183.002563,232.978210 
	C201.310959,232.984161 219.619522,233.030624 237.927567,232.952896 
	C240.714172,232.941071 243.498322,232.353439 246.726257,232.074097 
	C242.718277,233.753830 238.267639,235.391602 233.155899,236.762817 
	C227.319214,236.369965 222.143616,236.243683 216.509674,236.065063 
	C212.027145,236.057632 208.002960,236.102554 203.514832,236.088562 
	C188.020828,235.964142 172.990784,235.898636 157.970490,235.481476 
	C157.973755,234.426788 157.967270,233.723755 158.341827,233.012497 
	C159.485291,232.991333 160.247696,232.978363 161.477982,232.972229 
	C168.964767,232.978775 175.983658,232.978485 183.002563,232.978210 
z"/>
<path fill="#88A6B6" opacity="1.000000" stroke="none" 
	d="
M225.004883,8.990671 
	C224.674927,7.619469 224.344971,6.248267 224.012085,4.522757 
	C228.313934,4.117588 232.623108,3.918376 236.922653,4.045348 
	C247.329102,4.352667 255.718353,12.764223 255.953079,23.197447 
	C256.109528,30.151648 255.961716,37.112690 255.586182,44.535759 
	C254.819351,45.001026 254.416428,45.001202 254.008835,44.532913 
	C254.001892,39.262718 254.516129,34.390434 253.872253,29.676327 
	C252.980469,23.147219 250.810425,17.176405 244.986526,12.848625 
	C238.766708,8.226634 231.879242,9.110273 225.004883,8.990671 
z"/>
<path fill="#537691" opacity="1.000000" stroke="none" 
	d="
M26.935709,12.338473 
	C26.782669,15.157331 26.133291,18.233315 26.059248,21.323084 
	C25.893740,28.229708 26.014982,35.143208 26.015900,42.991512 
	C26.001299,54.958073 25.990215,65.987030 25.625856,77.010880 
	C24.565237,77.009567 23.857895,77.013359 23.086378,76.552460 
	C22.963879,70.732956 22.905550,65.378128 22.907839,59.558895 
	C22.950249,54.414551 22.932045,49.734612 22.962322,44.585159 
	C22.593613,38.066387 22.176422,32.017136 21.759233,25.967882 
	C23.406311,21.512541 25.053389,17.057198 26.935709,12.338473 
z"/>
<path fill="#97CBE3" opacity="1.000000" stroke="none" 
	d="
M8.988296,81.968185 
	C8.554466,82.602112 8.120637,83.236031 7.443354,84.026039 
	C7.115649,77.802917 5.728056,71.172256 10.868172,65.809265 
	C11.201359,65.461639 11.055664,64.617889 11.062895,64.004089 
	C11.072642,63.176437 10.796052,62.283348 11.018946,61.529728 
	C13.654656,52.618130 16.360657,43.727325 19.490417,35.203022 
	C19.962307,37.040916 19.991953,38.506840 19.663321,40.048168 
	C18.379820,42.369354 15.289661,44.525356 19.012554,47.235966 
	C18.998125,47.688824 18.992506,47.869968 18.638363,48.228142 
	C17.874046,52.938408 17.458258,57.471645 17.019958,62.322182 
	C16.973995,63.061913 16.950542,63.484344 16.561962,63.978817 
	C15.165973,65.425209 13.463917,66.700195 13.242702,68.194412 
	C12.768989,71.394173 13.060597,74.707245 12.815229,78.077515 
	C12.309879,78.372055 12.111782,78.627815 11.734142,79.112175 
	C10.643362,80.173363 9.815829,81.070778 8.988296,81.968185 
z"/>
<path fill="#97CBE3" opacity="1.000000" stroke="none" 
	d="
M184.125259,253.753876 
	C183.691849,253.647171 183.778580,253.283157 184.212097,253.023956 
	C185.749313,251.182877 186.853012,249.601028 188.215881,248.009888 
	C188.647858,247.996185 188.820679,247.991760 189.419006,247.996002 
	C192.298706,248.128250 194.752899,248.251831 197.502228,248.390259 
	C198.546036,247.090408 199.780914,245.552597 201.260315,244.000824 
	C201.504852,243.986862 201.993591,243.949448 202.443054,243.965195 
	C206.883896,243.421036 212.022507,246.089066 214.380371,240.012970 
	C215.142624,240.001877 215.578217,239.991913 216.006912,239.990662 
	C216.000000,239.999390 216.018082,239.986862 216.007523,240.348572 
	C215.936508,241.742599 215.876053,242.774933 215.774841,244.502899 
	C220.346085,242.648651 225.492950,244.020798 228.338745,238.844635 
	C229.842880,238.490356 231.015381,238.280121 232.187866,238.069885 
	C229.260376,243.290253 224.231964,244.350433 218.870850,245.114044 
	C215.725922,245.561996 212.701508,246.810852 209.597290,247.598663 
	C201.258438,249.714920 192.905823,251.776993 184.125259,253.753876 
z"/>
<path fill="#7396A7" opacity="1.000000" stroke="none" 
	d="
M79.994514,8.991425 
	C80.324478,7.620800 80.654442,6.250175 80.986557,4.524076 
	C90.010483,4.131342 99.032249,4.094084 108.517586,4.469161 
	C108.648758,6.247875 108.316360,7.614255 107.520981,8.984044 
	C102.706085,8.994250 98.354179,9.001047 93.538895,9.003778 
	C89.052528,9.004241 85.029533,9.008768 80.753532,9.008129 
	C80.331856,8.999116 80.163185,8.995271 79.994514,8.991425 
z"/>
<path fill="#84A8BC" opacity="1.000000" stroke="none" 
	d="
M254.013519,45.001373 
	C254.416428,45.001202 254.819351,45.001026 255.523987,45.000629 
	C255.868835,63.027996 255.911972,81.055580 255.588165,99.545624 
	C254.819656,100.008812 254.418076,100.009537 254.010254,99.548492 
	C254.001450,95.390640 253.998886,91.694557 253.997986,87.529907 
	C254.004272,73.041359 254.008896,59.021366 254.013519,45.001373 
z"/>
<path fill="#88A6B6" opacity="1.000000" stroke="none" 
	d="
M150.522171,4.098142 
	C149.689499,5.546176 148.392303,6.936416 146.713837,8.663290 
	C145.889130,9.002294 145.445724,9.004663 144.535980,9.003937 
	C139.380753,9.003755 134.691849,9.006666 129.626633,9.006516 
	C128.497543,8.999444 127.744743,8.995435 126.997864,8.632740 
	C127.329796,6.903315 127.655800,5.532575 127.981804,4.161836 
	C135.340424,4.121339 142.699036,4.080843 150.522171,4.098142 
z"/>
<path fill="#7E9FAE" opacity="1.000000" stroke="none" 
	d="
M127.517868,4.105052 
	C127.655800,5.532575 127.329796,6.903315 126.582275,8.634279 
	C124.774292,8.997541 123.387810,9.000580 121.538040,9.000853 
	C117.051804,9.002472 113.028854,9.006857 108.750374,9.005347 
	C108.324547,8.993179 108.154259,8.986907 107.983963,8.980635 
	C108.316360,7.614255 108.648758,6.247875 108.981758,4.527371 
	C115.006218,4.131588 121.030067,4.089928 127.517868,4.105052 
z"/>
<path fill="#6697B6" opacity="1.000000" stroke="none" 
	d="
M255.824448,143.015350 
	C255.877335,153.038803 255.930237,163.062256 255.605362,173.544968 
	C254.818756,174.003281 254.409927,174.002335 254.000351,173.666641 
	C253.995895,172.886032 253.992188,172.440140 253.991272,171.566193 
	C253.992371,169.424377 253.990692,167.710617 253.992004,165.552948 
	C253.993118,162.738297 253.991257,160.367584 253.993286,157.547989 
	C253.993530,154.397705 253.989853,151.696304 253.991180,148.567352 
	C254.001389,146.429276 254.006546,144.718735 254.313904,143.006714 
	C255.018875,143.008591 255.421661,143.011978 255.824448,143.015350 
z"/>
<path fill="#4C80A1" opacity="1.000000" stroke="none" 
	d="
M254.272614,223.742188 
	C254.002579,220.649277 254.000015,217.280624 253.996628,213.003799 
	C253.994263,209.395874 253.992706,206.696121 253.994385,203.536179 
	C254.003357,199.390381 254.009079,195.704773 254.316925,192.015320 
	C255.021881,192.014130 255.424698,192.016785 255.827530,192.019440 
	C255.398392,202.501770 254.969254,212.984100 254.272614,223.742188 
z"/>
<path fill="#91B8D0" opacity="1.000000" stroke="none" 
	d="
M20.021601,39.972763 
	C19.991953,38.506840 19.962307,37.040916 19.861404,35.131523 
	C20.252003,31.941490 20.713858,29.194921 21.467472,26.208118 
	C22.176422,32.017136 22.593613,38.066387 22.703815,44.669849 
	C21.914610,45.476273 21.432396,45.728485 20.726936,45.982841 
	C20.503693,45.984985 20.057205,45.989376 20.047176,45.560852 
	C20.031963,43.412472 20.026783,41.692619 20.021601,39.972763 
z"/>
<path fill="#77A5BF" opacity="1.000000" stroke="none" 
	d="
M254.016479,100.010269 
	C254.418076,100.009537 254.819656,100.008812 255.521988,100.010849 
	C255.867828,108.035660 255.912903,116.057709 255.589874,124.542252 
	C254.818436,125.004509 254.415100,125.004272 254.006226,124.534973 
	C254.000854,116.711128 254.001038,109.356323 254.003357,101.669579 
	C254.009171,100.895180 254.012833,100.452721 254.016479,100.010269 
z"/>
<path fill="#A1BCD5" opacity="1.000000" stroke="none" 
	d="
M232.396423,237.994858 
	C231.015381,238.280121 229.842880,238.490356 227.893738,238.844910 
	C223.417419,239.321777 219.717758,239.654312 216.018082,239.986862 
	C216.018082,239.986862 216.000000,239.999390 216.034668,239.656219 
	C216.368912,238.247849 216.668457,237.182617 216.968018,236.117401 
	C222.143616,236.243683 227.319214,236.369965 232.760193,236.832306 
	C233.015015,237.491486 232.874817,237.741974 232.396423,237.994858 
z"/>
<path fill="#70A0BB" opacity="1.000000" stroke="none" 
	d="
M254.011765,125.004028 
	C254.415100,125.004272 254.818436,125.004509 255.523972,125.007278 
	C255.871277,130.701797 255.916382,136.393799 255.892975,142.550568 
	C255.421661,143.011978 255.018875,143.008591 254.308563,142.630386 
	C253.996323,141.503296 253.991592,140.751022 253.990921,139.534256 
	C253.993759,134.712234 253.992538,130.354736 253.995544,125.748901 
	C253.999741,125.500587 254.011765,125.004028 254.011765,125.004028 
z"/>
<path fill="#598DAD" opacity="1.000000" stroke="none" 
	d="
M255.903564,191.555557 
	C255.424698,192.016785 255.021881,192.014130 254.310394,191.676910 
	C253.996964,190.891617 253.992172,190.440872 253.989868,189.574402 
	C253.989792,187.771835 253.987228,186.385010 253.989349,184.569763 
	C253.992920,182.426437 253.991806,180.711533 253.995285,178.580597 
	C254.000290,176.776825 254.000702,175.389099 254.001099,174.001373 
	C254.409927,174.002335 254.818756,174.003281 255.534088,174.009735 
	C255.886917,179.707382 255.933243,185.399536 255.903564,191.555557 
z"/>
<path fill="#416D93" opacity="1.000000" stroke="none" 
	d="
M247.330811,232.143066 
	C247.287598,231.978256 247.474319,231.748917 247.791870,231.643234 
	C247.922714,231.766907 247.560745,232.078522 247.330811,232.143066 
z"/>
<path fill="#7199BE" opacity="1.000000" stroke="none" 
	d="
M187.956726,248.019165 
	C186.853012,249.601028 185.749313,251.182877 184.339386,252.886810 
	C182.157120,252.669708 180.281448,252.036469 178.405045,252.034363 
	C129.742523,251.979584 81.079926,251.994614 32.417339,251.987427 
	C17.875267,251.985275 10.019927,244.070175 10.018072,229.432388 
	C10.012119,182.436325 10.017757,135.440277 9.997065,88.444221 
	C9.996191,86.460770 9.776723,84.477417 9.323693,82.231102 
	C9.815829,81.070778 10.643362,80.173363 12.038260,79.407211 
	C12.735919,81.515892 12.978973,83.493240 12.979976,85.470711 
	C13.003774,132.413773 13.270200,179.359421 12.819333,226.298141 
	C12.703427,238.364853 22.727833,248.275131 34.644241,248.177094 
	C85.745377,247.756668 136.852066,248.010864 187.956726,248.019165 
z"/>
<path fill="#598DAD" opacity="1.000000" stroke="none" 
	d="
M253.991135,203.996353 
	C253.992706,206.696121 253.994263,209.395874 253.993942,212.545166 
	C252.534637,213.234436 251.055847,213.384964 249.623123,213.727921 
	C236.795441,216.798508 224.071655,220.408569 211.128067,222.861053 
	C197.063583,225.525940 183.527237,222.586868 170.757812,216.292572 
	C168.575089,215.216675 166.710953,213.494431 164.313400,211.676514 
	C159.687500,201.845612 154.865204,193.047043 145.376129,187.499649 
	C137.973541,183.172043 130.952927,178.120361 124.113632,172.928009 
	C120.357513,170.076401 117.327583,166.268250 114.069153,162.642334 
	C114.656830,162.212738 115.145599,162.032211 116.017105,161.915558 
	C118.583961,163.139801 120.930138,164.073715 122.923576,165.500504 
	C130.692200,171.060760 138.355179,176.768829 146.045334,182.438385 
	C151.706863,186.612335 157.349533,190.811874 163.034821,195.352509 
	C163.996231,197.252594 164.600998,199.178635 165.902222,200.287170 
	C175.293350,208.287399 185.475861,214.205490 198.499054,214.109512 
	C209.739197,214.026672 220.921387,213.648941 231.829086,210.952774 
	C239.331223,209.098373 246.611633,206.346878 253.991135,203.996353 
z"/>
<path fill="#4C82A9" opacity="1.000000" stroke="none" 
	d="
M182.948914,232.637497 
	C175.983658,232.978485 168.964767,232.978775 161.437164,232.626312 
	C155.262894,224.996002 150.406158,216.849792 143.742081,210.644562 
	C133.754150,201.344284 122.299858,193.639740 111.861130,184.794037 
	C106.433556,180.194733 101.846359,174.603729 97.205154,169.313568 
	C99.934685,168.734650 102.338600,168.302856 105.040222,168.055542 
	C110.105148,172.216507 114.734161,176.374603 119.669464,180.130188 
	C128.849426,187.115860 137.957901,194.250534 147.607300,200.538803 
	C151.839279,203.296707 154.629745,206.359818 156.001221,211.000000 
	C157.998077,217.250229 162.790176,220.705902 168.266754,223.658188 
	C173.247726,226.343292 178.027054,229.402481 182.948914,232.637497 
z"/>
<path fill="#5488AD" opacity="1.000000" stroke="none" 
	d="
M156.364258,210.961151 
	C154.629745,206.359818 151.839279,203.296707 147.607300,200.538803 
	C137.957901,194.250534 128.849426,187.115860 119.669464,180.130188 
	C114.734161,176.374603 110.105148,172.216507 105.296005,167.806519 
	C108.159462,165.879135 111.064850,164.385254 113.970230,162.891388 
	C117.327583,166.268250 120.357513,170.076401 124.113632,172.928009 
	C130.952927,178.120361 137.973541,183.172043 145.376129,187.499649 
	C154.865204,193.047043 159.687500,201.845612 163.963348,211.641129 
	C161.575455,211.640762 159.151382,211.281525 156.364258,210.961151 
z"/>
<path fill="#7E9FAE" opacity="1.000000" stroke="none" 
	d="
M79.538391,8.993565 
	C80.163185,8.995271 80.331856,8.999116 80.750168,9.417911 
	C78.323891,19.289991 75.647972,28.747126 72.988617,38.145699 
	C74.871498,38.929745 76.198647,39.482376 76.992233,39.812832 
	C77.336662,43.050293 78.454277,46.010403 77.751129,48.444557 
	C76.046249,54.346565 77.978195,58.181721 82.990463,61.402000 
	C82.316383,65.827995 81.649399,69.851868 80.531570,73.929726 
	C77.050491,73.936264 74.020256,73.888832 70.992599,73.399384 
	C70.992920,70.839294 71.330482,68.651871 70.915398,66.618057 
	C70.129585,62.767742 70.069458,58.283421 64.998795,56.588402 
	C64.958946,55.182991 65.261681,53.994453 64.825027,53.226143 
	C60.512722,45.638550 62.674175,37.792049 64.046150,30.109579 
	C65.314247,23.008816 67.322746,16.040279 69.005157,9.013508 
	C72.364189,9.007572 75.723228,9.001638 79.538391,8.993565 
z"/>
<path fill="#618BA5" opacity="1.000000" stroke="none" 
	d="
M25.979132,77.015984 
	C25.990215,65.987030 26.001299,54.958073 26.024586,43.459435 
	C30.942205,43.642960 32.192398,48.244183 34.908707,51.250702 
	C35.537121,51.946266 35.911072,52.871735 36.706497,54.304295 
	C37.347778,61.474575 37.145939,68.117798 38.173019,74.565247 
	C39.201042,81.018585 42.165489,86.795883 48.533871,90.476265 
	C48.431705,96.617775 48.280231,102.302193 47.742962,107.986862 
	C46.210110,107.437553 44.628899,107.194260 43.988869,106.286995 
	C40.686508,101.605789 37.734501,96.677902 34.445557,91.986595 
	C31.798815,88.211311 28.846308,84.650391 26.020903,80.596313 
	C26.001270,79.137512 25.990200,78.076752 25.979132,77.015984 
z"/>
<path fill="#7396A7" opacity="1.000000" stroke="none" 
	d="
M45.001068,50.000153 
	C38.237560,39.451309 39.250866,26.883354 36.164288,15.375049 
	C35.035213,11.165308 37.589588,9.067021 42.097885,9.014280 
	C46.088398,8.967597 50.079899,9.004887 54.527660,9.415803 
	C53.806435,14.603659 52.046871,19.327471 51.602558,24.171909 
	C51.084686,29.818325 51.103348,35.673981 52.045311,41.243301 
	C52.790459,45.648983 55.282005,49.759289 56.609222,54.000214 
	C52.480640,52.666492 48.740852,51.333321 45.001068,50.000153 
z"/>
<path fill="#799BAB" opacity="1.000000" stroke="none" 
	d="
M56.998020,54.000763 
	C55.282005,49.759289 52.790459,45.648983 52.045311,41.243301 
	C51.103348,35.673981 51.084686,29.818325 51.602558,24.171909 
	C52.046871,19.327471 53.806435,14.603659 54.995834,9.418829 
	C59.363125,9.008657 63.718945,9.006158 68.539963,9.008583 
	C67.322746,16.040279 65.314247,23.008816 64.046150,30.109579 
	C62.674175,37.792049 60.512722,45.638550 64.825027,53.226143 
	C65.261681,53.994453 64.958946,55.182991 64.671616,56.423180 
	C62.229057,56.113888 60.114223,55.557934 57.780170,54.893436 
	C57.287693,54.584980 57.100052,54.323605 56.998020,54.000763 
z"/>
<path fill="#7298AF" opacity="1.000000" stroke="none" 
	d="
M48.484558,90.019165 
	C42.165489,86.795883 39.201042,81.018585 38.173019,74.565247 
	C37.145939,68.117798 37.347778,61.474575 37.015450,54.460407 
	C39.205647,53.618732 40.115677,49.391705 43.676476,52.344345 
	C45.868824,59.709286 50.086720,66.206482 47.582516,73.940353 
	C45.183937,74.093155 43.207340,74.179794 40.925125,74.279831 
	C43.658257,77.011398 46.507313,78.794685 47.695267,81.350159 
	C48.846622,83.826904 48.290676,87.097321 48.484558,90.019165 
z"/>
<path fill="#6F94AC" opacity="1.000000" stroke="none" 
	d="
M48.004501,73.874191 
	C50.086720,66.206482 45.868824,59.709286 44.040409,52.384705 
	C44.261253,51.512535 44.523426,51.016136 44.893333,50.259941 
	C48.740852,51.333321 52.480640,52.666492 56.609222,54.000214 
	C57.100052,54.323605 57.287693,54.584980 57.781456,55.285355 
	C62.088612,61.195644 59.633305,68.051590 61.533585,73.909584 
	C56.717243,73.942146 52.360874,73.908173 48.004501,73.874191 
z"/>
<path fill="#99B3C2" opacity="1.000000" stroke="none" 
	d="
M254.008835,44.532913 
	C254.008896,59.021366 254.004272,73.041359 253.612152,87.524628 
	C251.819717,86.509888 249.866806,85.262360 249.127365,83.504417 
	C247.719391,80.157051 247.004501,76.518150 246.001343,72.567474 
	C246.333694,67.422943 246.666534,62.711239 246.999619,57.581345 
	C246.560547,54.924347 246.626312,52.408554 245.580841,50.502167 
	C243.111664,45.999653 240.270859,41.675423 237.292160,37.483894 
	C232.989639,31.429491 228.495209,25.507612 223.958038,19.625332 
	C221.498322,16.436445 220.013718,13.099238 220.997299,9.009460 
	C222.065903,9.005740 223.134506,9.002020 224.604004,8.994486 
	C231.879242,9.110273 238.766708,8.226634 244.986526,12.848625 
	C250.810425,17.176405 252.980469,23.147219 253.872253,29.676327 
	C254.516129,34.390434 254.001892,39.262718 254.008835,44.532913 
z"/>
<path fill="#9DB4C3" opacity="1.000000" stroke="none" 
	d="
M220.528931,9.006776 
	C220.013718,13.099238 221.498322,16.436445 223.958038,19.625332 
	C228.495209,25.507612 232.989639,31.429491 237.292160,37.483894 
	C240.270859,41.675423 243.111664,45.999653 245.580841,50.502167 
	C246.626312,52.408554 246.560547,54.924347 246.650299,57.524982 
	C245.876678,57.430183 245.244461,57.044918 245.059769,56.506210 
	C242.299774,48.456650 237.583679,41.574776 232.563980,34.809948 
	C230.303757,31.763950 228.175705,29.004147 223.844238,28.693932 
	C221.580750,26.612356 219.744919,24.106239 217.313248,23.201435 
	C210.565002,20.690454 203.644333,18.533770 196.645966,16.839539 
	C191.312012,15.548249 185.420166,13.650753 180.376572,14.757495 
	C172.933823,16.390697 165.993683,20.384562 158.907578,23.526628 
	C156.978500,24.382004 155.185120,25.651644 153.522308,26.973707 
	C151.071716,28.922110 148.627029,30.933371 146.508362,33.221977 
	C145.328583,34.496365 144.814240,36.386768 143.643951,38.035244 
	C140.858795,39.713753 138.429703,41.356575 136.001099,42.602531 
	C135.814835,37.753906 140.128235,35.528923 141.298355,32.328976 
	C144.015869,24.897228 150.407455,21.152630 154.867538,15.564253 
	C156.469070,13.557568 157.636383,11.204346 159.001877,9.009278 
	C179.354767,9.007549 199.707672,9.005820 220.528931,9.006776 
z"/>
<path fill="#99B3C2" opacity="1.000000" stroke="none" 
	d="
M158.541061,9.006096 
	C157.636383,11.204346 156.469070,13.557568 154.867538,15.564253 
	C150.407455,21.152630 144.015869,24.897228 141.298355,32.328976 
	C140.128235,35.528923 135.814835,37.753906 135.956329,42.978302 
	C135.275177,45.382172 134.798203,47.099747 133.969086,48.626022 
	C132.420929,51.475910 130.668213,54.214687 128.678146,56.836899 
	C127.565910,55.193012 126.743080,53.728409 125.994408,52.226837 
	C124.966827,50.165905 123.995461,48.076946 123.000031,45.595352 
	C124.041512,42.121845 124.748734,38.883301 126.200912,36.022976 
	C128.512177,31.470549 130.296005,25.280823 134.150131,23.192120 
	C140.425812,19.791086 140.866150,13.236850 145.002304,9.007032 
	C145.445724,9.004663 145.889130,9.002294 146.665054,8.998096 
	C150.691788,8.998484 154.386017,9.000699 158.541061,9.006096 
z"/>
<path fill="#C8D9EB" opacity="1.000000" stroke="none" 
	d="
M22.847223,60.023304 
	C22.905550,65.378128 22.963879,70.732956 23.031158,77.017006 
	C23.076263,97.310204 23.112413,116.674164 23.094120,136.500397 
	C23.086433,142.980331 23.133192,148.997986 23.122086,155.480011 
	C23.040453,175.776886 22.950590,195.609634 23.018162,215.441818 
	C23.057535,226.997940 31.320204,235.841583 42.501602,235.942307 
	C60.329433,236.102905 78.160652,235.887283 96.454147,235.905167 
	C108.276184,235.931519 119.634506,235.883453 131.457428,235.903748 
	C140.601593,235.925797 149.281158,235.879456 157.960739,235.833130 
	C172.990784,235.898636 188.020828,235.964142 203.523254,236.445007 
	C203.998047,237.574097 204.000443,238.287842 203.750000,239.003113 
	C203.328598,239.006149 203.160019,239.007645 202.523773,239.006348 
	C149.259659,239.002365 96.463219,238.990784 43.666840,239.042114 
	C41.771866,239.043961 39.877502,239.666260 37.619839,239.997940 
	C36.173519,239.670425 35.090218,239.344376 33.957039,238.673462 
	C21.916775,231.769455 20.778179,220.848160 20.859062,208.627090 
	C21.184835,159.405075 20.971573,110.179504 20.968212,60.718048 
	C20.978989,60.480850 21.011551,60.007084 21.317644,60.004604 
	C22.031567,60.009182 22.439394,60.016243 22.847223,60.023304 
z"/>
<path fill="#457CA6" opacity="1.000000" stroke="none" 
	d="
M96.879539,169.460693 
	C101.846359,174.603729 106.433556,180.194733 111.861130,184.794037 
	C122.299858,193.639740 133.754150,201.344284 143.742081,210.644562 
	C150.406158,216.849792 155.262894,224.996002 160.969284,232.619476 
	C160.247696,232.978363 159.485291,232.991333 157.930023,233.009171 
	C155.758652,233.003311 154.380157,232.992569 152.958862,232.610352 
	C151.838760,229.887695 151.360672,226.833221 149.575836,225.312317 
	C143.306503,219.970154 136.574615,215.172501 130.042892,210.136246 
	C122.075478,203.992935 113.899101,198.091293 106.256111,191.566208 
	C100.486259,186.640289 95.330055,180.977539 90.084366,175.467926 
	C88.704788,174.018936 88.006966,171.920853 87.441948,170.041946 
	C90.885071,169.795593 93.882301,169.628143 96.879539,169.460693 
z"/>
<path fill="#256297" opacity="1.000000" stroke="none" 
	d="
M153.001648,232.981812 
	C154.380157,232.992569 155.758652,233.003311 157.548981,233.017380 
	C157.967270,233.723755 157.973755,234.426788 157.970490,235.481476 
	C149.281158,235.879456 140.601593,235.925797 131.459579,235.552994 
	C130.994888,234.432205 130.992645,233.730545 131.449524,233.018341 
	C135.275177,232.998932 138.641693,232.990051 142.465775,232.985703 
	C146.282761,232.987427 149.642212,232.984619 153.001648,232.981812 
z"/>
<path fill="#B8CDE2" opacity="1.000000" stroke="none" 
	d="
M204.002838,239.001587 
	C204.000443,238.287842 203.998047,237.574097 203.987213,236.503906 
	C208.002960,236.102554 212.027145,236.057632 216.509674,236.065063 
	C216.668457,237.182617 216.368912,238.247849 216.041595,239.647507 
	C215.578217,239.991913 215.142624,240.001877 213.927673,240.006653 
	C210.099823,239.668182 207.051346,239.334885 204.002838,239.001587 
z"/>
<path fill="#416D93" opacity="1.000000" stroke="none" 
	d="
M23.148565,136.038132 
	C23.112413,116.674164 23.076263,97.310204 23.095333,77.481689 
	C23.857895,77.013359 24.565237,77.009567 25.625856,77.010880 
	C25.990200,78.076752 26.001270,79.137512 26.008028,81.065414 
	C26.014200,89.950813 26.024683,97.969078 26.023544,106.454697 
	C26.017307,111.611198 26.022694,116.300354 26.021461,121.456238 
	C26.011431,126.618156 26.008018,131.313354 25.647495,136.005539 
	C24.576445,136.014404 23.862505,136.026260 23.148565,136.038132 
z"/>
<path fill="#B8CDE2" opacity="1.000000" stroke="none" 
	d="
M22.907839,59.558895 
	C22.439394,60.016243 22.031567,60.009182 21.311113,59.539169 
	C20.982386,54.711040 20.966284,50.345871 20.950180,45.980698 
	C21.432396,45.728485 21.914610,45.476273 22.655334,45.139366 
	C22.932045,49.734612 22.950249,54.414551 22.907839,59.558895 
z"/>
<path fill="#A1BCD5" opacity="1.000000" stroke="none" 
	d="
M188.215881,248.009903 
	C136.852066,248.010864 85.745377,247.756668 34.644241,248.177094 
	C22.727833,248.275131 12.703427,238.364853 12.819333,226.298141 
	C13.270200,179.359421 13.003774,132.413773 12.979976,85.470711 
	C12.978973,83.493240 12.735919,81.515892 12.301508,79.243439 
	C12.111782,78.627815 12.309879,78.372055 13.127314,77.929459 
	C14.591117,77.238113 15.519289,76.798424 16.996586,76.098618 
	C16.996586,78.613815 16.996527,80.425484 16.996595,82.237152 
	C16.998354,128.540649 16.995928,174.844162 17.004372,221.147659 
	C17.007015,235.647385 25.363722,243.992203 39.882263,243.994720 
	C87.684807,244.003036 135.487350,244.001221 183.289886,244.003372 
	C184.455795,244.003433 185.624451,244.056656 186.787109,243.995590 
	C190.301697,243.811005 190.334869,245.509598 188.993500,247.987320 
	C188.820679,247.991760 188.647858,247.996185 188.215881,248.009903 
z"/>
<path fill="#C2D6E6" opacity="1.000000" stroke="none" 
	d="
M189.419006,247.996002 
	C190.334869,245.509598 190.301697,243.811005 186.787109,243.995590 
	C185.624451,244.056656 184.455795,244.003433 183.289886,244.003372 
	C135.487350,244.001221 87.684807,244.003036 39.882263,243.994720 
	C25.363722,243.992203 17.007015,235.647385 17.004372,221.147659 
	C16.995928,174.844162 16.998354,128.540649 16.996595,82.237152 
	C16.996527,80.425484 16.996586,78.613815 16.996586,76.098618 
	C15.519289,76.798424 14.591117,77.238113 13.350861,77.825851 
	C13.060597,74.707245 12.768989,71.394173 13.242702,68.194412 
	C13.463917,66.700195 15.165973,65.425209 16.587469,64.444305 
	C16.984570,66.639244 16.732918,68.491119 17.071918,70.227692 
	C17.394791,71.881660 18.334093,73.415291 19.001780,75.470299 
	C19.000643,123.987389 18.991339,172.036011 19.007013,220.084641 
	C19.010134,229.651215 25.237396,237.452103 34.006916,239.018311 
	C35.090218,239.344376 36.173519,239.670425 38.090454,239.998260 
	C89.947960,239.998535 140.971848,239.997025 191.956238,240.367432 
	C192.473053,241.823792 192.894226,243.725220 193.610306,243.843658 
	C196.022263,244.242584 198.539078,244.007416 201.015793,244.014801 
	C199.780914,245.552597 198.546036,247.090408 197.502228,248.390259 
	C194.752899,248.251831 192.298706,248.128250 189.419006,247.996002 
z"/>
<path fill="#A1BCD5" opacity="1.000000" stroke="none" 
	d="
M20.726936,45.982841 
	C20.966284,50.345871 20.982386,54.711040 21.005020,59.541649 
	C21.011551,60.007084 20.978989,60.480850 20.648132,60.730370 
	C19.889713,60.973263 19.462154,60.966640 19.025326,60.499596 
	C19.006332,56.043159 18.996611,52.047138 18.986887,48.051117 
	C18.992506,47.869968 18.998125,47.688824 19.228764,47.126083 
	C19.720480,46.545193 19.921619,46.293488 20.057205,45.989376 
	C20.057205,45.989376 20.503693,45.984985 20.726936,45.982841 
z"/>
<path fill="#C2D6E6" opacity="1.000000" stroke="none" 
	d="
M18.638363,48.228142 
	C18.996611,52.047138 19.006332,56.043159 19.013863,60.758492 
	C19.008707,61.650238 19.005741,61.822678 18.675789,61.995468 
	C17.913359,61.998837 17.477913,62.001862 17.042469,62.004883 
	C17.458258,57.471645 17.874046,52.938408 18.638363,48.228142 
z"/>
<path fill="#C8D9EB" opacity="1.000000" stroke="none" 
	d="
M17.019958,62.322182 
	C17.477913,62.001862 17.913359,61.998837 18.678236,62.459206 
	C19.005907,66.949013 19.004147,70.975418 19.002384,75.001831 
	C18.334093,73.415291 17.394791,71.881660 17.071918,70.227692 
	C16.732918,68.491119 16.984570,66.639244 16.952595,64.372269 
	C16.950542,63.484344 16.973995,63.061913 17.019958,62.322182 
z"/>
<path fill="#C2D6E6" opacity="1.000000" stroke="none" 
	d="
M20.047176,45.560852 
	C19.921619,46.293488 19.720480,46.545193 19.237574,46.854374 
	C15.289661,44.525356 18.379820,42.369354 19.663321,40.048168 
	C20.026783,41.692619 20.031963,43.412472 20.047176,45.560852 
z"/>
<path fill="#C2D6E6" opacity="1.000000" stroke="none" 
	d="
M203.750000,239.003113 
	C207.051346,239.334885 210.099823,239.668182 213.601028,240.007797 
	C212.022507,246.089066 206.883896,243.421036 202.448761,243.619537 
	C202.333176,242.165024 202.661346,241.071915 202.991745,239.736389 
	C202.993988,239.493988 202.991455,239.009155 202.991455,239.009155 
	C203.160019,239.007645 203.328598,239.006149 203.750000,239.003113 
z"/>
<path fill="#C8D9EB" opacity="1.000000" stroke="none" 
	d="
M202.989502,239.978806 
	C202.661346,241.071915 202.333176,242.165024 201.999298,243.603790 
	C201.993591,243.949448 201.504852,243.986862 201.260315,244.000824 
	C198.539078,244.007416 196.022263,244.242584 193.610306,243.843658 
	C192.894226,243.725220 192.473053,241.823792 192.414719,240.365677 
	C196.271637,239.987610 199.630569,239.983215 202.989502,239.978806 
z"/>
<path fill="#B8CDE2" opacity="1.000000" stroke="none" 
	d="
M216.007523,240.348572 
	C219.717758,239.654312 223.417419,239.321777 227.562103,238.988983 
	C225.492950,244.020798 220.346085,242.648651 215.774841,244.502899 
	C215.876053,242.774933 215.936508,241.742599 216.007523,240.348572 
z"/>
<path fill="#88A6B6" opacity="1.000000" stroke="none" 
	d="
M107.520981,8.984045 
	C108.154259,8.986907 108.324547,8.993179 108.742508,9.386132 
	C106.075294,16.676794 103.037773,23.532131 100.275345,30.496590 
	C96.493454,40.031235 90.240761,48.900261 91.614380,59.997814 
	C89.484917,59.665195 87.743225,59.332020 85.956001,58.609726 
	C80.929726,46.976284 85.846451,36.367138 88.266396,25.696012 
	C89.559692,19.992994 92.051407,14.561746 94.002266,9.007844 
	C98.354179,9.001047 102.706085,8.994250 107.520981,8.984045 
z"/>
<path fill="#83A3B3" opacity="1.000000" stroke="none" 
	d="
M93.538895,9.003778 
	C92.051407,14.561746 89.559692,19.992994 88.266396,25.696012 
	C85.846451,36.367138 80.929726,46.976284 85.680496,58.735870 
	C84.632874,59.834049 83.815216,60.416969 82.997559,60.999886 
	C77.978195,58.181721 76.046249,54.346565 77.751129,48.444557 
	C78.454277,46.010403 77.336662,43.050293 76.992233,39.812832 
	C76.198647,39.482376 74.871498,38.929745 72.988617,38.145699 
	C75.647972,28.747126 78.323891,19.289991 81.003181,9.423077 
	C85.029533,9.008768 89.052528,9.004241 93.538895,9.003778 
z"/>
<path fill="#93B2C4" opacity="1.000000" stroke="none" 
	d="
M246.001831,73.000305 
	C247.004501,76.518150 247.719391,80.157051 249.127365,83.504417 
	C249.866806,85.262360 251.819717,86.509888 253.610504,87.993195 
	C253.998886,91.694557 254.001450,95.390640 254.010239,99.548492 
	C254.012833,100.452721 254.009171,100.895180 253.599838,101.669174 
	C251.667526,102.362396 249.282242,102.236931 248.755295,103.165756 
	C245.620361,108.691650 239.710815,108.116554 234.941925,109.593735 
	C235.524170,106.969727 236.104965,104.746353 236.677292,102.520790 
	C239.124023,93.006500 241.568237,83.491562 244.180389,73.735161 
	C244.898880,73.329086 245.450363,73.164696 246.001831,73.000305 
z"/>
<path fill="#95AFBE" opacity="1.000000" stroke="none" 
	d="
M144.535980,9.003937 
	C140.866150,13.236850 140.425812,19.791086 134.150131,23.192120 
	C130.296005,25.280823 128.512177,31.470549 126.200912,36.022976 
	C124.748734,38.883301 124.041512,42.121845 122.600990,45.596085 
	C120.134811,46.334255 118.067711,46.667049 116.000412,46.547867 
	C116.555809,41.520226 118.150551,36.765530 117.400948,32.414745 
	C116.487503,27.113039 118.934853,24.023495 121.688667,20.486908 
	C124.589310,16.761751 127.241936,12.843476 130.002930,9.009579 
	C134.691849,9.006666 139.380753,9.003755 144.535980,9.003937 
z"/>
<path fill="#90ADBD" opacity="1.000000" stroke="none" 
	d="
M129.626633,9.006516 
	C127.241936,12.843476 124.589310,16.761751 121.688667,20.486908 
	C118.934853,24.023495 116.487503,27.113039 117.400948,32.414745 
	C118.150551,36.765530 116.555809,41.520226 115.991760,46.955956 
	C115.655228,50.544121 115.327156,53.272213 114.593651,56.000282 
	C112.888260,56.150986 111.176392,55.828163 110.361725,56.536797 
	C107.306923,59.194000 105.701759,57.187786 103.951752,54.601780 
	C103.487961,48.066418 100.962440,41.495136 107.581665,36.808723 
	C108.195015,36.374466 108.545631,35.487373 108.874489,34.746716 
	C110.595245,30.871172 112.070877,26.872574 114.009918,23.111746 
	C116.484802,18.311634 119.320915,13.697764 122.001328,9.003619 
	C123.387810,9.000580 124.774292,8.997541 126.576363,8.992964 
	C127.744743,8.995435 128.497543,8.999444 129.626633,9.006516 
z"/>
<path fill="#8FAAB9" opacity="1.000000" stroke="none" 
	d="
M121.538040,9.000854 
	C119.320915,13.697764 116.484802,18.311634 114.009918,23.111746 
	C112.070877,26.872574 110.595245,30.871172 108.874489,34.746716 
	C108.545631,35.487373 108.195015,36.374466 107.581665,36.808723 
	C100.962440,41.495136 103.487961,48.066418 103.673584,54.836510 
	C102.296234,59.644230 101.148788,63.821033 99.659378,67.947372 
	C96.878975,65.263695 94.440559,62.630474 92.002136,59.997253 
	C90.240761,48.900261 96.493454,40.031235 100.275345,30.496590 
	C103.037773,23.532131 106.075294,16.676794 108.998047,9.392027 
	C113.028854,9.006857 117.051804,9.002472 121.538040,9.000854 
z"/>
<path fill="#77A5BF" opacity="1.000000" stroke="none" 
	d="
M253.986176,148.994888 
	C253.989853,151.696304 253.993530,154.397705 253.635635,157.588043 
	C251.530350,159.008514 249.818985,160.007538 248.037796,160.860840 
	C234.751648,167.225525 220.870178,171.944046 206.393906,174.520218 
	C201.828140,175.332733 196.765518,174.712509 192.216156,173.589737 
	C190.393372,173.139847 189.390137,169.532959 187.912704,167.434265 
	C187.373108,166.667755 186.651459,165.846802 185.823883,165.494141 
	C178.270844,162.275482 170.676086,159.154724 163.070053,155.657913 
	C163.596054,153.832932 164.145523,152.355408 165.132935,150.914429 
	C172.015015,152.017166 178.464691,153.052185 184.895813,154.191833 
	C185.637695,154.323303 186.224304,155.173386 186.971344,155.458755 
	C191.908310,157.344604 196.869492,159.167114 201.963348,161.366364 
	C203.751053,164.798248 202.934525,170.061554 209.120300,169.008987 
	C213.217072,168.311844 218.696701,170.949860 220.193802,163.982574 
	C226.207565,162.267044 231.828995,160.636459 237.372253,158.773315 
	C239.335342,158.113495 241.164871,156.981049 242.955566,155.899185 
	C246.667847,153.656357 250.313263,151.302872 253.986176,148.994888 
z"/>
<path fill="#6C9DB8" opacity="1.000000" stroke="none" 
	d="
M254.000351,173.666641 
	C254.000702,175.389099 254.000290,176.776825 253.605133,178.588547 
	C249.119446,180.350800 244.910721,181.409729 240.958252,183.076355 
	C225.047745,189.785355 208.328400,192.162979 191.279800,191.828217 
	C183.970123,191.684677 176.157059,190.647552 173.953262,181.183029 
	C173.741974,180.275574 172.020844,179.719696 170.965942,178.653625 
	C166.865601,175.162003 162.799911,172.017380 158.809052,168.540741 
	C159.414139,166.747223 159.944412,165.285721 160.875031,163.871155 
	C164.099899,165.533936 166.751587,167.854431 169.789658,168.599579 
	C174.286819,169.702545 176.196167,172.780518 178.197433,176.299927 
	C179.739853,179.012344 181.654312,181.531357 183.582397,183.996292 
	C184.239868,184.836807 185.453110,185.792465 186.394226,185.773880 
	C193.658569,185.630569 200.930069,185.419571 208.174438,184.889328 
	C211.426437,184.651291 214.671387,183.813797 217.832047,182.933990 
	C224.904694,180.965240 232.452148,181.312332 239.157349,177.175171 
	C243.509689,174.489761 249.005173,173.657074 253.988464,171.994263 
	C253.992188,172.440140 253.995895,172.886032 254.000351,173.666641 
z"/>
<path fill="#70A0BB" opacity="1.000000" stroke="none" 
	d="
M253.991257,171.566193 
	C249.005173,173.657074 243.509689,174.489761 239.157349,177.175171 
	C232.452148,181.312332 224.904694,180.965240 217.832047,182.933990 
	C214.671387,183.813797 211.426437,184.651291 208.174438,184.889328 
	C200.930069,185.419571 193.658569,185.630569 186.394226,185.773880 
	C185.453110,185.792465 184.239868,184.836807 183.582397,183.996292 
	C181.654312,181.531357 179.739853,179.012344 178.197433,176.299927 
	C176.196167,172.780518 174.286819,169.702545 169.789658,168.599579 
	C166.751587,167.854431 164.099899,165.533936 160.973114,163.533783 
	C161.080536,162.090759 161.490234,161.032043 162.284149,159.985596 
	C170.797226,163.195358 178.960297,166.100983 183.615204,174.609344 
	C184.790146,176.756927 188.346191,178.656616 190.902145,178.784180 
	C197.077499,179.092392 203.378052,178.753876 209.503174,177.839203 
	C224.750488,175.562317 239.696152,171.954361 253.989014,165.996872 
	C253.990692,167.710617 253.992371,169.424377 253.991257,171.566193 
z"/>
<path fill="#74A3BC" opacity="1.000000" stroke="none" 
	d="
M253.992004,165.552948 
	C239.696152,171.954361 224.750488,175.562317 209.503174,177.839203 
	C203.378052,178.753876 197.077499,179.092392 190.902145,178.784180 
	C188.346191,178.656616 184.790146,176.756927 183.615204,174.609344 
	C178.960297,166.100983 170.797226,163.195358 162.295975,159.634949 
	C162.313568,158.183121 162.703552,157.094238 163.093521,156.005356 
	C170.676086,159.154724 178.270844,162.275482 185.823883,165.494141 
	C186.651459,165.846802 187.373108,166.667755 187.912704,167.434265 
	C189.390137,169.532959 190.393372,173.139847 192.216156,173.589737 
	C196.765518,174.712509 201.828140,175.332733 206.393906,174.520218 
	C220.870178,171.944046 234.751648,167.225525 248.037796,160.860840 
	C249.818985,160.007538 251.530350,159.008514 253.631714,158.036926 
	C253.991257,160.367584 253.993118,162.738297 253.992004,165.552948 
z"/>
<path fill="#7CA9C4" opacity="1.000000" stroke="none" 
	d="
M253.991196,148.567352 
	C250.313263,151.302872 246.667847,153.656357 242.955566,155.899185 
	C241.164871,156.981049 239.335342,158.113495 237.372253,158.773315 
	C231.828995,160.636459 226.207565,162.267044 220.223206,163.580475 
	C220.959579,159.117767 222.089706,155.063858 223.624298,151.007355 
	C226.887299,149.987152 229.756149,148.997482 232.602341,147.946426 
	C239.735992,145.312012 246.859375,142.649826 253.986862,139.998779 
	C253.991592,140.751022 253.996323,141.503296 254.006378,142.631882 
	C254.006546,144.718735 254.001389,146.429276 253.991196,148.567352 
z"/>
<path fill="#6093B0" opacity="1.000000" stroke="none" 
	d="
M253.994385,203.536179 
	C246.611633,206.346878 239.331223,209.098373 231.829086,210.952774 
	C220.921387,213.648941 209.739197,214.026672 198.499054,214.109512 
	C185.475861,214.205490 175.293350,208.287399 165.902222,200.287170 
	C164.600998,199.178635 163.996231,197.252594 163.330292,195.205261 
	C164.727676,193.136780 165.863831,191.568085 167.301880,190.151047 
	C170.101517,192.593628 172.232941,195.979965 175.168503,196.961716 
	C182.734726,199.492020 190.751846,202.816757 198.414749,202.424408 
	C210.599609,201.800461 222.705490,198.700394 234.721313,196.081223 
	C241.274536,194.652771 247.573669,192.058594 253.987366,189.990143 
	C253.992172,190.440872 253.996964,190.891617 254.008270,191.680756 
	C254.009079,195.704773 254.003357,199.390381 253.994385,203.536179 
z"/>
<path fill="#8CB1C5" opacity="1.000000" stroke="none" 
	d="
M234.936584,109.993378 
	C239.710815,108.116554 245.620361,108.691650 248.755295,103.165756 
	C249.282242,102.236931 251.667526,102.362396 253.597687,102.001129 
	C254.001038,109.356323 254.000854,116.711128 254.006226,124.534973 
	C254.011765,125.004028 253.999741,125.500587 253.615265,125.796532 
	C251.084595,126.730904 248.956512,127.440643 246.787918,127.990768 
	C243.659164,128.784454 239.849838,128.613632 237.518646,130.402328 
	C234.540237,132.687653 231.812927,133.306290 228.538818,132.389374 
	C230.739822,124.664055 232.838211,117.328720 234.936584,109.993378 
z"/>
<path fill="#83ADC3" opacity="1.000000" stroke="none" 
	d="
M228.436218,132.779373 
	C231.812927,133.306290 234.540237,132.687653 237.518646,130.402328 
	C239.849838,128.613632 243.659164,128.784454 246.787918,127.990768 
	C248.956512,127.440643 251.084595,126.730904 253.611053,126.044846 
	C253.992538,130.354736 253.993759,134.712234 253.990921,139.534271 
	C246.859375,142.649826 239.735992,145.312012 232.602341,147.946426 
	C229.756149,148.997482 226.887299,149.987152 223.670456,150.635956 
	C225.020172,144.437897 226.728195,138.608643 228.436218,132.779373 
z"/>
<path fill="#6697B6" opacity="1.000000" stroke="none" 
	d="
M253.989868,189.574402 
	C247.573669,192.058594 241.274536,194.652771 234.721313,196.081223 
	C222.705490,198.700394 210.599609,201.800461 198.414749,202.424408 
	C190.751846,202.816757 182.734726,199.492020 175.168503,196.961716 
	C172.232941,195.979965 170.101517,192.593628 167.298004,189.785858 
	C166.765976,188.490952 166.788361,187.428253 166.274521,186.979340 
	C161.702881,182.985458 157.293335,178.731705 152.334488,175.273804 
	C145.789368,170.709747 138.743851,166.869659 132.007172,162.571457 
	C128.303833,160.208603 124.792763,157.544403 121.268768,154.675995 
	C122.485725,151.513092 123.628929,148.690216 125.104477,146.016266 
	C128.056808,148.040939 130.573975,150.087524 133.325943,151.744049 
	C136.036316,153.375549 138.984619,154.611740 141.962646,156.379593 
	C146.304733,169.201904 146.304733,169.201904 158.734222,168.872757 
	C162.799911,172.017380 166.865601,175.162003 170.965637,179.066040 
	C170.404465,190.190094 172.369171,193.029129 180.644028,195.798584 
	C191.394791,199.396713 202.089539,197.233505 212.806412,196.145996 
	C222.658249,195.146271 231.934921,191.936417 241.169006,188.511185 
	C245.306046,186.976639 249.704727,186.147446 253.984665,184.998169 
	C253.987228,186.385010 253.989792,187.771835 253.989868,189.574402 
z"/>
<path fill="#689AB5" opacity="1.000000" stroke="none" 
	d="
M253.989349,184.569763 
	C249.704727,186.147446 245.306046,186.976639 241.169006,188.511185 
	C231.934921,191.936417 222.658249,195.146271 212.806412,196.145996 
	C202.089539,197.233505 191.394791,199.396713 180.644028,195.798584 
	C172.369171,193.029129 170.404465,190.190094 171.000290,179.413025 
	C172.020844,179.719696 173.741974,180.275574 173.953262,181.183029 
	C176.157059,190.647552 183.970123,191.684677 191.279800,191.828217 
	C208.328400,192.162979 225.047745,189.785355 240.958252,183.076355 
	C244.910721,181.409729 249.119446,180.350800 253.600525,179.004578 
	C253.991806,180.711533 253.992920,182.426437 253.989349,184.569763 
z"/>
<path fill="#FDFEFE" opacity="1.000000" stroke="none" 
	d="
M124.772125,145.867355 
	C123.628929,148.690216 122.485725,151.513092 121.046631,154.932098 
	C119.045273,157.636047 117.339821,159.743866 115.634369,161.851685 
	C115.145599,162.032211 114.656830,162.212738 114.069145,162.642319 
	C111.064850,164.385254 108.159462,165.879135 104.998291,167.622040 
	C102.338600,168.302856 99.934685,168.734650 97.205154,169.313568 
	C93.882301,169.628143 90.885071,169.795593 87.008972,169.958496 
	C81.751572,169.669998 77.373024,169.386047 72.614212,169.048355 
	C62.533623,165.847443 54.767643,160.354538 50.225182,150.473572 
	C49.497192,144.049179 48.821640,138.040176 48.320114,131.674347 
	C48.390434,128.210434 48.286732,125.103363 48.346329,121.595886 
	C48.382668,116.792519 48.255711,112.389557 48.128754,107.986603 
	C48.280231,102.302193 48.431705,96.617775 48.533871,90.476265 
	C48.290676,87.097321 48.846622,83.826904 47.695267,81.350159 
	C46.507313,78.794685 43.658257,77.011398 40.925125,74.279831 
	C43.207340,74.179794 45.183937,74.093155 47.582516,73.940353 
	C52.360874,73.908173 56.717243,73.942146 61.979599,73.978065 
	C65.587067,73.933800 68.288544,73.887604 70.990028,73.841400 
	C74.020256,73.888832 77.050491,73.936264 80.923950,73.994644 
	C83.082878,74.178009 84.398575,74.350426 85.714279,74.522835 
	C86.085854,74.988983 86.457436,75.455124 86.829010,75.921272 
	C79.323318,76.759064 77.247139,80.803925 78.632774,87.342392 
	C78.605370,91.836052 78.628830,95.910957 78.529678,100.361145 
	C78.425476,103.500877 78.443871,106.265327 78.362610,109.475845 
	C78.334137,113.294876 78.405334,116.667839 78.378372,120.491455 
	C78.345734,124.965233 78.411247,128.988342 78.374817,133.459381 
	C78.448021,137.871017 78.360519,141.867126 78.844757,145.792725 
	C80.725983,161.043488 95.832413,168.109161 109.450119,159.929459 
	C111.895126,156.949417 114.034370,154.112671 116.431458,150.991425 
	C117.178429,148.134796 117.667572,145.562683 118.274994,142.619293 
	C118.542076,140.166183 118.690880,138.084366 118.909004,135.548859 
	C118.936363,131.732773 118.894409,128.370346 118.920860,124.548462 
	C118.948097,120.064102 118.906937,116.039177 118.932175,111.559052 
	C118.950668,107.736305 118.902763,104.368774 118.914627,100.536819 
	C117.616753,91.438240 123.274178,80.602905 111.106712,74.528435 
	C113.403160,74.337204 115.699615,74.145973 118.452225,74.003296 
	C122.270790,74.016945 125.633186,73.982040 129.462219,73.993286 
	C135.950699,74.011604 141.972519,73.983772 148.445740,73.997787 
	C151.006836,74.047546 153.181015,73.755440 155.199203,74.189156 
	C156.217300,74.407959 156.952728,75.942017 157.444290,76.902870 
	C151.684555,77.592842 150.181778,81.178833 151.122437,85.792603 
	C152.036041,90.273560 153.684540,94.604691 155.024353,99.390930 
	C157.956848,110.028389 160.875290,120.276527 163.793716,130.524673 
	C164.170258,130.483154 164.546783,130.441620 164.923325,130.400101 
	C168.001770,120.616898 171.080215,110.833694 174.406418,100.792999 
	C175.807648,96.708908 176.961151,92.882294 178.371826,88.801163 
	C179.757355,84.926735 180.997314,81.336685 181.976273,77.676819 
	C182.671631,75.077232 183.887909,73.816109 186.804382,73.944221 
	C192.418839,74.190826 198.048798,74.084702 203.770782,74.499390 
	C204.874954,77.970421 205.880661,81.066933 206.915863,84.533897 
	C207.899094,87.687180 208.852798,90.470001 209.835541,93.639786 
	C213.557907,105.830498 217.251266,117.634239 220.944611,129.437988 
	C221.364471,129.416473 221.784348,129.394943 222.204208,129.373428 
	C224.868561,118.262253 227.532928,107.151077 230.437576,95.756592 
	C231.184555,93.040764 231.516495,90.555367 232.233521,88.186523 
	C233.829208,82.914909 232.518784,79.118073 227.290100,76.788025 
	C226.594620,76.478104 226.435104,74.965424 226.276337,73.994431 
	C226.525314,73.979118 227.011642,73.867943 227.476227,73.916290 
	C233.298325,73.968719 238.655838,73.972786 244.013367,73.976852 
	C241.568237,83.491562 239.124023,93.006500 236.677292,102.520790 
	C236.104965,104.746353 235.524170,106.969727 234.941925,109.593735 
	C232.838211,117.328720 230.739822,124.664055 228.538818,132.389374 
	C226.728195,138.608643 225.020172,144.437897 223.265991,150.638550 
	C222.089706,155.063858 220.959579,159.117767 219.800049,163.573792 
	C218.696701,170.949860 213.217072,168.311844 209.120300,169.008987 
	C202.934525,170.061554 203.751053,164.798248 201.964752,160.991821 
	C200.181854,155.508392 198.538162,150.755569 196.896942,145.626587 
	C195.538193,141.177429 194.176987,137.104477 192.819641,132.655884 
	C189.251373,121.372322 185.679245,110.464386 182.107132,99.556450 
	C181.779282,99.582901 181.451447,99.609360 181.123596,99.635811 
	C177.982254,109.713463 174.840897,119.791122 171.468628,130.139313 
	C170.179657,133.940720 169.121613,137.471588 167.874878,141.317963 
	C166.689117,144.714951 165.692062,147.796402 164.694992,150.877869 
	C164.145523,152.355408 163.596054,153.832932 163.070053,155.657913 
	C162.703552,157.094238 162.313568,158.183121 161.911743,159.622665 
	C161.490234,161.032043 161.080536,162.090759 160.572754,163.486847 
	C159.944412,165.285721 159.414139,166.747223 158.809052,168.540741 
	C146.304733,169.201904 146.304733,169.201904 141.973785,155.999176 
	C139.248764,146.833908 136.646713,138.407318 134.046844,129.584351 
	C131.709564,121.086899 129.370117,112.985786 127.030655,104.884682 
	C126.777069,104.973862 126.523483,105.063042 126.269897,105.152222 
	C126.269897,112.447014 126.269897,119.741814 126.204498,127.494957 
	C125.683441,133.924652 125.227776,139.895996 124.772125,145.867355 
z"/>
<path fill="#6091B3" opacity="1.000000" stroke="none" 
	d="
M116.017105,161.915558 
	C117.339821,159.743866 119.045273,157.636047 120.972862,155.272141 
	C124.792763,157.544403 128.303833,160.208603 132.007172,162.571457 
	C138.743851,166.869659 145.789368,170.709747 152.334488,175.273804 
	C157.293335,178.731705 161.702881,182.985458 166.274521,186.979340 
	C166.788361,187.428253 166.765976,188.490952 166.996124,189.634201 
	C165.863831,191.568085 164.727676,193.136780 163.296066,194.852753 
	C157.349533,190.811874 151.706863,186.612335 146.045334,182.438385 
	C138.355179,176.768829 130.692200,171.060760 122.923576,165.500504 
	C120.930138,164.073715 118.583961,163.139801 116.017105,161.915558 
z"/>
<path fill="#84A8BC" opacity="1.000000" stroke="none" 
	d="
M78.683647,86.923645 
	C77.247139,80.803925 79.323318,76.759064 86.829010,75.921272 
	C86.457436,75.455124 86.085854,74.988983 85.714279,74.522835 
	C84.398575,74.350426 83.082878,74.178009 81.374802,73.940674 
	C81.649399,69.851868 82.316383,65.827995 82.990463,61.402004 
	C83.815216,60.416969 84.632874,59.834049 85.726028,59.124985 
	C87.743225,59.332020 89.484917,59.665195 91.614380,59.997814 
	C94.440559,62.630474 96.878975,65.263695 99.659103,68.395081 
	C100.334412,73.262268 100.668015,77.631279 100.686188,82.138351 
	C98.977165,83.066063 97.583572,83.855728 96.682510,84.366302 
	C98.220963,88.864746 99.611664,92.931152 100.692734,96.840363 
	C99.560341,95.661644 98.922043,94.073845 97.877373,93.733528 
	C95.520287,92.965675 92.325790,89.617447 90.601936,94.994843 
	C88.918694,94.466560 86.744499,94.200188 86.499001,93.366135 
	C85.302986,89.302650 81.832672,88.383919 78.683647,86.923645 
z"/>
<path fill="#7298AF" opacity="1.000000" stroke="none" 
	d="
M70.992599,73.399384 
	C68.288544,73.887604 65.587067,73.933800 62.439568,73.911522 
	C59.633305,68.051590 62.088612,61.195644 58.000679,55.393902 
	C60.114223,55.557934 62.229057,56.113888 64.671074,56.835068 
	C70.069458,58.283421 70.129585,62.767742 70.915398,66.618057 
	C71.330482,68.651871 70.992920,70.839294 70.992599,73.399384 
z"/>
<path fill="#5686A4" opacity="1.000000" stroke="none" 
	d="
M47.742958,107.986862 
	C48.255711,112.389557 48.382668,116.792519 48.032597,121.583237 
	C46.255726,121.070641 44.949589,120.179207 43.657314,119.268120 
	C40.636688,117.138474 36.355614,115.628372 34.908867,112.713821 
	C32.840481,108.546936 29.275278,107.802071 26.035164,105.987350 
	C26.024683,97.969078 26.014200,89.950813 26.016592,81.463448 
	C28.846308,84.650391 31.798815,88.211311 34.445557,91.986595 
	C37.734501,96.677902 40.686508,101.605789 43.988869,106.286995 
	C44.628899,107.194260 46.210110,107.437553 47.742958,107.986862 
z"/>
<path fill="#9CB7C7" opacity="1.000000" stroke="none" 
	d="
M244.180389,73.735161 
	C238.655838,73.972786 233.298325,73.968719 227.472305,73.558792 
	C227.002747,72.435028 227.001678,71.717110 227.377121,70.921432 
	C228.403152,67.781784 230.302170,64.317833 229.470306,61.732601 
	C226.867462,53.643452 223.234055,45.885895 220.000458,37.614262 
	C221.333939,34.485836 222.666962,31.742994 224.000000,29.000153 
	C228.175705,29.004147 230.303757,31.763950 232.563980,34.809948 
	C237.583679,41.574776 242.299774,48.456650 245.059769,56.506210 
	C245.244461,57.044918 245.876678,57.430183 246.650085,57.943172 
	C246.666534,62.711239 246.333694,67.422943 246.001343,72.567474 
	C245.450363,73.164696 244.898880,73.329086 244.180389,73.735161 
z"/>
<path fill="#A0B6C6" opacity="1.000000" stroke="none" 
	d="
M223.844238,28.693932 
	C222.666962,31.742994 221.333939,34.485836 219.642242,37.578125 
	C216.525726,36.421753 213.802612,34.847084 210.999237,33.431355 
	C208.650116,32.245029 206.148483,30.211105 203.816360,30.343884 
	C194.718384,30.861870 185.642273,26.790386 176.622299,30.043283 
	C169.463394,32.625019 162.436661,35.575714 155.379623,38.432693 
	C154.856354,38.644535 154.511337,39.390873 154.169891,39.942253 
	C152.099319,43.286045 150.053848,46.645390 147.686264,49.844570 
	C143.286774,47.714115 141.956711,44.744659 143.895645,40.455643 
	C144.208847,39.762810 143.978882,38.824432 144.000000,37.999554 
	C144.814240,36.386768 145.328583,34.496365 146.508362,33.221977 
	C148.627029,30.933371 151.071716,28.922110 153.522308,26.973707 
	C155.185120,25.651644 156.978500,24.382004 158.907578,23.526628 
	C165.993683,20.384562 172.933823,16.390697 180.376572,14.757495 
	C185.420166,13.650753 191.312012,15.548249 196.645966,16.839539 
	C203.644333,18.533770 210.565002,20.690454 217.313248,23.201435 
	C219.744919,24.106239 221.580750,26.612356 223.844238,28.693932 
z"/>
<path fill="#9CB7C7" opacity="1.000000" stroke="none" 
	d="
M143.643951,38.035244 
	C143.978882,38.824432 144.208847,39.762810 143.895645,40.455643 
	C141.956711,44.744659 143.286774,47.714115 147.679504,50.237770 
	C147.324936,55.523781 146.663376,60.261631 146.043365,65.376770 
	C146.721375,68.488014 147.357864,71.221977 147.994354,73.955940 
	C141.972519,73.983772 135.950699,74.011604 129.465897,73.566086 
	C128.767868,67.728424 132.413010,62.363552 129.000610,56.999695 
	C130.668213,54.214687 132.420929,51.475910 133.969086,48.626022 
	C134.798203,47.099747 135.275177,45.382172 135.955841,43.375160 
	C138.429703,41.356575 140.858795,39.713753 143.643951,38.035244 
z"/>
<path fill="#93B2C4" opacity="1.000000" stroke="none" 
	d="
M128.678146,56.836895 
	C132.413010,62.363552 128.767868,67.728424 128.999268,73.519943 
	C125.633186,73.982040 122.270790,74.016945 118.449188,73.621613 
	C115.057877,67.797699 114.549973,61.982254 114.999084,56.000305 
	C115.327156,53.272213 115.655228,50.544121 115.991959,47.407936 
	C118.067711,46.667049 120.134811,46.334255 122.600952,46.000729 
	C123.995461,48.076946 124.966827,50.165905 125.994408,52.226837 
	C126.743080,53.728409 127.565910,55.193012 128.678146,56.836895 
z"/>
<path fill="#16487D" opacity="1.000000" stroke="none" 
	d="
M95.990440,235.830750 
	C78.160652,235.887283 60.329433,236.102905 42.501602,235.942307 
	C31.320204,235.841583 23.057535,226.997940 23.018162,215.441818 
	C22.950590,195.609634 23.040453,175.776886 23.470015,155.477539 
	C24.571703,155.017258 25.267597,155.023819 25.969395,155.401123 
	C25.983027,156.514999 25.990753,157.258102 25.990387,158.445221 
	C25.989305,161.259644 25.996317,163.630066 25.997616,166.454498 
	C25.997427,169.938660 26.002949,172.968826 26.002817,176.453064 
	C26.003355,179.937317 26.009550,182.967499 26.010012,186.458511 
	C26.008400,190.610855 26.012522,194.302383 26.011318,198.462143 
	C26.005396,203.067627 25.911249,207.207367 26.021338,211.341660 
	C26.384838,224.992722 34.588154,232.995804 48.127689,232.996063 
	C53.754318,232.996170 59.380947,232.985764 65.460953,232.985535 
	C68.943687,232.986725 71.973053,232.982498 75.462891,232.984680 
	C79.615967,232.990921 83.308578,232.990753 87.455170,232.996170 
	C90.939720,233.000046 93.970299,232.998322 96.999809,232.998535 
	C96.998749,233.000458 96.993011,233.010117 96.878006,233.290329 
	C96.505478,234.323944 96.247955,235.077332 95.990440,235.830750 
z"/>
<path fill="#B8CDE2" opacity="1.000000" stroke="none" 
	d="
M19.001778,75.470299 
	C19.004147,70.975418 19.005907,66.949013 19.005222,62.458858 
	C19.005741,61.822678 19.008707,61.650238 19.023132,61.218910 
	C19.462154,60.966640 19.889713,60.973263 20.637356,60.967567 
	C20.971573,110.179504 21.184835,159.405075 20.859062,208.627090 
	C20.778179,220.848160 21.916775,231.769455 33.957039,238.673462 
	C25.237396,237.452103 19.010134,229.651215 19.007013,220.084641 
	C18.991339,172.036011 19.000643,123.987389 19.001778,75.470299 
z"/>
<path fill="#B8CDE2" opacity="1.000000" stroke="none" 
	d="
M202.991760,239.736389 
	C199.630569,239.983215 196.271637,239.987610 192.454208,239.993744 
	C140.971848,239.997025 89.947960,239.998535 38.453468,239.999725 
	C39.877502,239.666260 41.771866,239.043961 43.666840,239.042114 
	C96.463219,238.990784 149.259659,239.002365 202.523773,239.006348 
	C202.991455,239.009155 202.993988,239.493988 202.991760,239.736389 
z"/>
<path fill="#1F5A94" opacity="1.000000" stroke="none" 
	d="
M96.454147,235.905151 
	C96.247955,235.077332 96.505478,234.323944 97.339439,233.284943 
	C101.613411,232.992188 105.310944,232.985001 109.472572,232.982635 
	C114.292496,232.985443 118.648308,232.983429 123.447762,232.986816 
	C126.257729,233.004425 128.624054,233.016663 130.990387,233.028885 
	C130.992645,233.730545 130.994888,234.432205 130.994995,235.484619 
	C119.634506,235.883453 108.276184,235.931519 96.454147,235.905151 
z"/>
<path fill="#215E95" opacity="1.000000" stroke="none" 
	d="
M25.963491,155.030365 
	C25.267597,155.023819 24.571703,155.017258 23.527878,155.013184 
	C23.133192,148.997986 23.086433,142.980331 23.094120,136.500397 
	C23.862505,136.026260 24.576445,136.014404 25.645668,136.403778 
	C26.008049,137.867493 26.015148,138.929947 26.013079,140.436676 
	C26.009777,143.251846 26.015644,145.622742 26.013683,148.432785 
	C25.991732,150.924759 25.977612,152.977554 25.963491,155.030365 
z"/>
<path fill="#4078A3" opacity="1.000000" stroke="none" 
	d="
M72.994484,169.102081 
	C77.373024,169.386047 81.751572,169.669998 86.563087,170.037399 
	C88.006966,171.920853 88.704788,174.018936 90.084366,175.467926 
	C95.330055,180.977539 100.486259,186.640289 106.256111,191.566208 
	C113.899101,198.091293 122.075478,203.992935 130.042892,210.136246 
	C136.574615,215.172501 143.306503,219.970154 149.575836,225.312317 
	C151.360672,226.833221 151.838760,229.887695 152.958862,232.610367 
	C149.642212,232.984619 146.282761,232.987427 142.426361,232.631897 
	C140.846527,230.647232 140.069565,228.655914 138.632874,227.451736 
	C126.106285,216.952682 113.316643,206.763870 100.901184,196.137024 
	C92.133064,188.632095 83.797958,180.618759 75.345596,172.750687 
	C74.319176,171.795227 73.766640,170.330688 72.994484,169.102081 
z"/>
<path fill="#37709F" opacity="1.000000" stroke="none" 
	d="
M72.614212,169.048340 
	C73.766640,170.330688 74.319176,171.795227 75.345596,172.750687 
	C83.797958,180.618759 92.133064,188.632095 100.901184,196.137024 
	C113.316643,206.763870 126.106285,216.952682 138.632874,227.451736 
	C140.069565,228.655914 140.846527,230.647232 141.968811,232.627380 
	C138.641693,232.990051 135.275177,232.998932 131.449524,233.018341 
	C128.624054,233.016663 126.257729,233.004425 123.411552,232.644196 
	C119.716530,229.028336 116.451279,225.807968 113.295517,222.483688 
	C103.572937,212.241882 93.922089,201.931931 84.187691,191.701431 
	C71.928749,178.817749 58.778069,166.888412 44.076488,156.882355 
	C38.585270,153.144989 32.069901,150.912354 26.021511,147.993622 
	C26.015644,145.622742 26.009777,143.251846 26.379904,140.479767 
	C32.491600,142.908875 38.201393,145.793671 43.977077,148.539886 
	C45.993671,149.498718 48.172749,150.115814 50.277622,150.888962 
	C54.767643,160.354538 62.533623,165.847443 72.614212,169.048340 
z"/>
<path fill="#4078A3" opacity="1.000000" stroke="none" 
	d="
M50.225182,150.473572 
	C48.172749,150.115814 45.993671,149.498718 43.977077,148.539886 
	C38.201393,145.793671 32.491600,142.908875 26.389071,140.035492 
	C26.015148,138.929947 26.008049,137.867493 26.002777,136.406799 
	C26.008018,131.313354 26.011431,126.618156 26.375561,121.498047 
	C30.191853,123.250641 33.519695,125.677063 37.139469,127.534599 
	C40.652416,129.337311 44.465057,130.556000 48.146088,132.031174 
	C48.821640,138.040176 49.497192,144.049179 50.225182,150.473572 
z"/>
<path fill="#4C80A1" opacity="1.000000" stroke="none" 
	d="
M48.320114,131.674347 
	C44.465057,130.556000 40.652416,129.337311 37.139469,127.534599 
	C33.519695,125.677063 30.191853,123.250641 26.382179,121.031311 
	C26.022694,116.300354 26.017307,111.611198 26.023542,106.454697 
	C29.275278,107.802071 32.840481,108.546936 34.908867,112.713821 
	C36.355614,115.628372 40.636688,117.138474 43.657314,119.268120 
	C44.949589,120.179207 46.255726,121.070641 47.869293,121.983643 
	C48.286732,125.103363 48.390434,128.210434 48.320114,131.674347 
z"/>
<path fill="#8BAEC1" opacity="1.000000" stroke="none" 
	d="
M114.593651,56.000282 
	C114.549973,61.982254 115.057877,67.797699 117.993027,73.573059 
	C115.699615,74.145973 113.403160,74.337204 111.106712,74.528435 
	C123.274178,80.602905 117.616753,91.438240 118.571938,100.491425 
	C116.666740,99.686935 114.949173,98.649338 113.700165,97.206215 
	C109.379257,92.213783 105.221481,87.080162 101.001617,82.000290 
	C100.668015,77.631279 100.334412,73.262268 100.001083,68.445541 
	C101.148788,63.821033 102.296234,59.644230 103.721832,55.232697 
	C105.701759,57.187786 107.306923,59.194000 110.361725,56.536797 
	C111.176392,55.828163 112.888260,56.150986 114.593651,56.000282 
z"/>
<path fill="#7CA9C4" opacity="1.000000" stroke="none" 
	d="
M165.132935,150.914429 
	C165.692062,147.796402 166.689117,144.714951 168.307251,141.317291 
	C171.059143,141.210648 173.216095,141.277359 175.315048,141.661285 
	C179.020645,142.339096 182.676010,143.747147 186.380112,143.849792 
	C190.105057,143.953018 193.710434,143.643127 196.894470,146.002762 
	C198.538162,150.755569 200.181854,155.508392 201.824158,160.635727 
	C196.869492,159.167114 191.908310,157.344604 186.971344,155.458755 
	C186.224304,155.173386 185.637695,154.323303 184.895813,154.191833 
	C178.464691,153.052185 172.015015,152.017166 165.132935,150.914429 
z"/>
<path fill="#74A3BC" opacity="1.000000" stroke="none" 
	d="
M125.104469,146.016266 
	C125.227776,139.895996 125.683441,133.924652 126.552887,127.492607 
	C129.325989,128.014847 131.685333,128.997772 134.044662,129.980713 
	C136.646713,138.407318 139.248764,146.833908 141.839661,155.640930 
	C138.984619,154.611740 136.036316,153.375549 133.325943,151.744049 
	C130.573975,150.087524 128.056808,148.040939 125.104469,146.016266 
z"/>
<path fill="#A3BFD1" opacity="1.000000" stroke="none" 
	d="
M203.672318,74.124855 
	C198.048798,74.084702 192.418839,74.190826 186.804382,73.944221 
	C183.887909,73.816109 182.671631,75.077232 181.976273,77.676819 
	C180.997314,81.336685 179.757355,84.926735 178.007446,88.642563 
	C172.569412,88.255943 168.411499,86.880241 166.890594,81.518387 
	C166.710709,80.884209 165.650772,80.499657 164.999207,79.561951 
	C164.749680,77.184853 164.289520,75.243866 164.301743,73.305862 
	C164.317841,70.752106 164.118851,67.957993 165.054428,65.698761 
	C167.007370,60.982780 169.643768,56.549831 172.119202,51.733917 
	C172.826218,50.977898 173.413422,50.488571 174.377716,49.999207 
	C176.502960,49.332687 178.251099,48.666199 180.416016,47.999725 
	C182.222061,47.999523 183.611343,47.999306 185.409149,47.999413 
	C187.785568,48.621078 190.513702,48.664810 191.533218,50.006687 
	C192.875366,51.773186 194.084930,51.833153 195.876297,52.500942 
	C199.201187,53.740398 202.479431,56.531174 204.437927,59.545967 
	C205.929840,61.842510 205.403870,65.479179 205.676575,68.528503 
	C205.867676,70.665359 207.268829,73.314537 203.672318,74.124855 
z"/>
<path fill="#A0BCCE" opacity="1.000000" stroke="none" 
	d="
M203.770782,74.499390 
	C207.268829,73.314537 205.867676,70.665359 205.676575,68.528503 
	C205.403870,65.479179 205.929840,61.842510 204.437927,59.545967 
	C202.479431,56.531174 199.201187,53.740398 195.876297,52.500942 
	C194.084930,51.833153 192.875366,51.773186 191.533218,50.006687 
	C190.513702,48.664810 187.785568,48.621078 185.485260,47.623459 
	C185.803497,46.842239 186.428757,46.139435 187.108994,46.081451 
	C191.056396,45.744984 195.064209,45.097389 198.955078,45.496250 
	C201.323761,45.739067 205.152802,47.325104 205.492615,48.913788 
	C206.614273,54.157906 211.083084,56.660892 214.456726,57.241280 
	C222.853867,58.685883 225.639389,63.860657 227.000610,70.999191 
	C227.001678,71.717110 227.002747,72.435028 227.007721,73.510445 
	C227.011642,73.867943 226.525314,73.979118 225.874847,73.992706 
	C217.167908,73.882607 213.400696,81.502892 206.886353,84.163437 
	C205.880661,81.066933 204.874954,77.970421 203.770782,74.499390 
z"/>
<path fill="#70A0BB" opacity="1.000000" stroke="none" 
	d="
M78.632774,87.342392 
	C81.832672,88.383919 85.302986,89.302650 86.499001,93.366135 
	C86.744499,94.200188 88.918694,94.466560 90.745895,95.295593 
	C99.508835,103.963379 105.530518,114.267769 114.501434,121.966148 
	C115.837769,123.112923 117.396576,124.000450 118.852455,125.007912 
	C118.894409,128.370346 118.936363,131.732773 118.576424,135.506073 
	C113.585144,131.913177 108.745514,128.158051 104.463768,123.848625 
	C97.685211,117.026260 91.383560,109.730988 84.635521,102.876610 
	C83.172173,101.390205 80.673889,100.922676 78.652290,99.985863 
	C78.628830,95.910957 78.605370,91.836052 78.632774,87.342392 
z"/>
<path fill="#5C8FB1" opacity="1.000000" stroke="none" 
	d="
M116.173622,151.275925 
	C114.034370,154.112671 111.895126,156.949417 109.160294,159.747925 
	C100.029465,151.307404 91.542152,142.855103 82.895508,134.569092 
	C81.868317,133.584747 79.970833,133.508591 78.476768,133.011459 
	C78.411247,128.988342 78.345734,124.965233 78.711823,120.491699 
	C85.638763,125.403214 92.177017,130.714203 98.616814,136.142029 
	C104.524292,141.121155 110.325554,146.226303 116.173622,151.275925 
z"/>
<path fill="#5488AD" opacity="1.000000" stroke="none" 
	d="
M78.374817,133.459381 
	C79.970833,133.508591 81.868317,133.584747 82.895508,134.569092 
	C91.542152,142.855103 100.029465,151.307404 108.854523,159.891220 
	C95.832413,168.109161 80.725983,161.043488 78.844757,145.792725 
	C78.360519,141.867126 78.448021,137.871017 78.374817,133.459381 
z"/>
<path fill="#6697B6" opacity="1.000000" stroke="none" 
	d="
M116.431458,150.991425 
	C110.325554,146.226303 104.524292,141.121155 98.616814,136.142029 
	C92.177017,130.714203 85.638763,125.403214 78.809982,120.041046 
	C78.405334,116.667839 78.334137,113.294876 78.694809,109.476974 
	C79.874626,109.327240 80.795235,109.436348 81.344414,109.945816 
	C88.664711,116.736862 95.847710,123.678055 103.244629,130.383606 
	C108.064171,134.752670 113.175888,138.799423 118.156723,142.990555 
	C117.667572,145.562683 117.178429,148.134796 116.431458,150.991425 
z"/>
<path fill="#9ABCD1" opacity="1.000000" stroke="none" 
	d="
M164.998779,79.999390 
	C165.650772,80.499657 166.710709,80.884209 166.890594,81.518387 
	C168.411499,86.880241 172.569412,88.255943 177.750244,88.897079 
	C176.961151,92.882294 175.807648,96.708908 173.974030,100.775543 
	C167.141663,100.868271 161.414459,96.862206 155.010315,99.001617 
	C153.684540,94.604691 152.036041,90.273560 151.122437,85.792603 
	C150.181778,81.178833 151.684555,77.592842 157.740082,77.119019 
	C159.333038,81.329567 161.950241,81.193756 164.998779,79.999390 
z"/>
<path fill="#91B8D0" opacity="1.000000" stroke="none" 
	d="
M230.197281,96.039909 
	C227.532928,107.151077 224.868561,118.262253 222.204208,129.373428 
	C221.784348,129.394943 221.364471,129.416473 220.944611,129.437988 
	C217.251266,117.634239 213.557907,105.830498 210.070999,93.331329 
	C216.917389,93.770584 223.557327,94.905251 230.197281,96.039909 
z"/>
<path fill="#9ABCD1" opacity="1.000000" stroke="none" 
	d="
M230.437576,95.756592 
	C223.557327,94.905251 216.917389,93.770584 210.041962,92.944366 
	C208.852798,90.470001 207.899094,87.687180 206.915863,84.533897 
	C213.400696,81.502892 217.167908,73.882607 225.625885,74.008026 
	C226.435104,74.965424 226.594620,76.478104 227.290100,76.788025 
	C232.518784,79.118073 233.829208,82.914909 232.233521,88.186523 
	C231.516495,90.555367 231.184555,93.040764 230.437576,95.756592 
z"/>
<path fill="#91B8D0" opacity="1.000000" stroke="none" 
	d="
M171.699539,129.868774 
	C174.840897,119.791122 177.982254,109.713463 181.123596,99.635811 
	C181.451447,99.609360 181.779282,99.582901 182.107132,99.556450 
	C185.679245,110.464386 189.251373,121.372322 192.405579,132.646515 
	C185.224976,131.964767 178.462250,130.916763 171.699539,129.868774 
z"/>
<path fill="#6C9DB8" opacity="1.000000" stroke="none" 
	d="
M118.274994,142.619293 
	C113.175888,138.799423 108.064171,134.752670 103.244629,130.383606 
	C95.847710,123.678055 88.664711,116.736862 81.344414,109.945816 
	C80.795235,109.436348 79.874626,109.327240 78.794479,109.030899 
	C78.443871,106.265327 78.425476,103.500877 78.529678,100.361145 
	C80.673889,100.922676 83.172173,101.390205 84.635521,102.876610 
	C91.383560,109.730988 97.685211,117.026260 104.463768,123.848625 
	C108.745514,128.158051 113.585144,131.913177 118.507111,135.959732 
	C118.690880,138.084366 118.542076,140.166183 118.274994,142.619293 
z"/>
<path fill="#91B8D0" opacity="1.000000" stroke="none" 
	d="
M155.024353,99.390930 
	C161.414459,96.862206 167.141663,100.868271 173.726288,101.033035 
	C171.080215,110.833694 168.001770,120.616898 164.923325,130.400101 
	C164.546783,130.441620 164.170258,130.483154 163.793716,130.524673 
	C160.875290,120.276527 157.956848,110.028389 155.024353,99.390930 
z"/>
<path fill="#83ADC3" opacity="1.000000" stroke="none" 
	d="
M171.468628,130.139313 
	C178.462250,130.916763 185.224976,131.964767 192.401733,133.022141 
	C194.176987,137.104477 195.538193,141.177429 196.896942,145.626587 
	C193.710434,143.643127 190.105057,143.953018 186.380112,143.849792 
	C182.676010,143.747147 179.020645,142.339096 175.315048,141.661285 
	C173.216095,141.277359 171.059143,141.210648 168.495941,141.001770 
	C169.121613,137.471588 170.179657,133.940720 171.468628,130.139313 
z"/>
<path fill="#A0BCCE" opacity="1.000000" stroke="none" 
	d="
M164.999207,79.561951 
	C161.950241,81.193756 159.333038,81.329567 158.111755,77.097504 
	C156.952728,75.942017 156.217300,74.407959 155.199203,74.189156 
	C153.181015,73.755440 151.006836,74.047546 148.445740,73.997787 
	C147.357864,71.221977 146.721375,68.488014 146.423126,65.334167 
	C148.494049,64.890976 150.266495,65.089043 151.949036,64.786705 
	C153.923553,64.431892 157.054184,64.150253 157.545486,62.956779 
	C160.283508,56.305634 166.819626,55.125751 171.999390,52.000610 
	C169.643768,56.549831 167.007370,60.982780 165.054428,65.698761 
	C164.118851,67.957993 164.317841,70.752106 164.301743,73.305862 
	C164.289520,75.243866 164.749680,77.184853 164.999207,79.561951 
z"/>
<path fill="#77A5BF" opacity="1.000000" stroke="none" 
	d="
M118.920860,124.548462 
	C117.396576,124.000450 115.837769,123.112923 114.501434,121.966148 
	C105.530518,114.267769 99.508835,103.963379 91.143967,95.295822 
	C92.325790,89.617447 95.520287,92.965675 97.877373,93.733528 
	C98.922043,94.073845 99.560341,95.661644 100.847992,97.146011 
	C102.202576,98.550934 102.993843,99.617088 103.998611,100.414055 
	C108.923141,104.320114 113.904495,108.154526 118.865768,112.014259 
	C118.906937,116.039177 118.948097,120.064102 118.920860,124.548462 
z"/>
<path fill="#83ADC3" opacity="1.000000" stroke="none" 
	d="
M118.932175,111.559052 
	C113.904495,108.154526 108.923141,104.320114 103.998611,100.414055 
	C102.993843,99.617088 102.202576,98.550934 101.157623,97.303207 
	C99.611664,92.931152 98.220963,88.864746 96.682510,84.366302 
	C97.583572,83.855728 98.977165,83.066063 100.686180,82.138351 
	C105.221481,87.080162 109.379257,92.213783 113.700165,97.206215 
	C114.949173,98.649338 116.666740,99.686935 118.512177,100.955849 
	C118.902763,104.368774 118.950668,107.736305 118.932175,111.559052 
z"/>
<path fill="#83ADC3" opacity="1.000000" stroke="none" 
	d="
M134.046844,129.584351 
	C131.685333,128.997772 129.325989,128.014847 126.618279,127.034264 
	C126.269897,119.741814 126.269897,112.447014 126.269897,105.152222 
	C126.523483,105.063042 126.777069,104.973862 127.030655,104.884682 
	C129.370117,112.985786 131.709564,121.086899 134.046844,129.584351 
z"/>
<path fill="#A1BACA" opacity="1.000000" stroke="none" 
	d="
M172.119202,51.733917 
	C166.819626,55.125751 160.283508,56.305634 157.545486,62.956779 
	C157.054184,64.150253 153.923553,64.431892 151.949036,64.786705 
	C150.266495,65.089043 148.494049,64.890976 146.381592,64.956879 
	C146.663376,60.261631 147.324936,55.523781 147.993256,50.392738 
	C150.053848,46.645390 152.099319,43.286045 154.169891,39.942253 
	C154.511337,39.390873 154.856354,38.644535 155.379623,38.432693 
	C162.436661,35.575714 169.463394,32.625019 176.622299,30.043283 
	C185.642273,26.790386 194.718384,30.861870 203.816360,30.343884 
	C206.148483,30.211105 208.650116,32.245029 210.999237,33.431355 
	C213.802612,34.847084 216.525726,36.421753 219.641800,37.963707 
	C223.234055,45.885895 226.867462,53.643452 229.470306,61.732601 
	C230.302170,64.317833 228.403152,67.781784 227.377121,70.921432 
	C225.639389,63.860657 222.853867,58.685883 214.456726,57.241280 
	C211.083084,56.660892 206.614273,54.157906 205.492615,48.913788 
	C205.152802,47.325104 201.323761,45.739067 198.955078,45.496250 
	C195.064209,45.097389 191.056396,45.744984 187.108994,46.081451 
	C186.428757,46.139435 185.803497,46.842239 185.076721,47.623135 
	C183.611343,47.999306 182.222061,47.999523 180.176392,47.726318 
	C176.927414,46.669956 174.587646,46.435013 174.000610,49.999237 
	C173.413422,50.488571 172.826218,50.977898 172.119202,51.733917 
z"/>
<path fill="#316C9C" opacity="1.000000" stroke="none" 
	d="
M26.013683,148.432785 
	C32.069901,150.912354 38.585270,153.144989 44.076488,156.882355 
	C58.778069,166.888412 71.928749,178.817749 84.187691,191.701431 
	C93.922089,201.931931 103.572937,212.241882 113.295517,222.483688 
	C116.451279,225.807968 119.716530,229.028336 122.967918,232.638824 
	C118.648308,232.983429 114.292496,232.985443 109.464966,232.616089 
	C108.655174,231.335663 108.533127,230.245148 107.945564,229.545639 
	C102.098106,222.583939 96.283707,215.589218 90.248711,208.791367 
	C77.028709,193.900208 63.280510,179.478851 46.629490,168.373688 
	C40.273666,164.134766 32.905373,161.413895 25.998482,158.001221 
	C25.990753,157.258102 25.983027,156.514999 25.969395,155.401123 
	C25.977612,152.977554 25.991732,150.924759 26.013683,148.432785 
z"/>
<path fill="#2B669A" opacity="1.000000" stroke="none" 
	d="
M25.990391,158.445221 
	C32.905373,161.413895 40.273666,164.134766 46.629490,168.373688 
	C63.280510,179.478851 77.028709,193.900208 90.248711,208.791367 
	C96.283707,215.589218 102.098106,222.583939 107.945564,229.545639 
	C108.533127,230.245148 108.655174,231.335663 109.000870,232.611267 
	C105.310944,232.985001 101.613411,232.992188 97.454453,233.004730 
	C96.993011,233.010117 96.998749,233.000458 96.964890,232.646149 
	C93.043144,226.785126 89.689476,220.786041 85.159523,215.871140 
	C74.773460,204.602524 65.572548,192.051071 52.277172,183.738327 
	C51.864426,183.480255 51.554771,183.054901 51.203693,182.700958 
	C43.956261,175.394562 35.063217,170.571686 26.003328,166.000473 
	C25.996317,163.630066 25.989305,161.259644 25.990391,158.445221 
z"/>
<path fill="#215E95" opacity="1.000000" stroke="none" 
	d="
M87.001190,232.990585 
	C83.308578,232.990753 79.615967,232.990921 75.424377,232.627182 
	C72.635567,227.424988 70.981995,222.531433 65.503227,219.554779 
	C62.038528,217.672409 60.266205,212.898087 57.270733,209.881729 
	C51.364025,203.933838 45.433475,197.935440 38.922688,192.690399 
	C35.223721,189.710541 30.356728,188.180588 26.015745,185.997681 
	C26.009550,182.967499 26.003355,179.937317 26.374561,176.458405 
	C31.177849,178.396515 35.625778,180.743652 40.021748,183.184387 
	C42.874226,184.768158 46.076225,186.039536 48.385696,188.227631 
	C57.012787,196.401230 65.409126,204.823883 73.729164,213.312744 
	C76.209282,215.843185 78.163002,218.890961 80.345177,221.711548 
	C81.555992,223.276596 82.909958,224.763931 83.893570,226.463303 
	C85.096832,228.542175 85.979752,230.806473 87.001190,232.990585 
z"/>
<path fill="#185590" opacity="1.000000" stroke="none" 
	d="
M65.007576,232.980133 
	C59.380947,232.985764 53.754318,232.996170 48.127689,232.996063 
	C34.588154,232.995804 26.384838,224.992722 26.021338,211.341660 
	C25.911249,207.207367 26.005396,203.067627 26.368347,198.504028 
	C35.422871,202.052795 43.231201,207.120667 48.793365,215.187729 
	C49.884602,216.770401 51.912228,217.674652 53.214481,219.150742 
	C57.221935,223.693115 61.087112,228.361008 65.007576,232.980133 
z"/>
<path fill="#256297" opacity="1.000000" stroke="none" 
	d="
M87.455170,232.996170 
	C85.979752,230.806473 85.096832,228.542175 83.893570,226.463303 
	C82.909958,224.763931 81.555992,223.276596 80.345177,221.711548 
	C78.163002,218.890961 76.209282,215.843185 73.729164,213.312744 
	C65.409126,204.823883 57.012787,196.401230 48.385696,188.227631 
	C46.076225,186.039536 42.874226,184.768158 40.021748,183.184387 
	C35.625778,180.743652 31.177849,178.396515 26.380217,176.004318 
	C26.002949,172.968826 25.997427,169.938660 25.997616,166.454498 
	C35.063217,170.571686 43.956261,175.394562 51.203693,182.700958 
	C51.554771,183.054901 51.864426,183.480255 52.277172,183.738327 
	C65.572548,192.051071 74.773460,204.602524 85.159523,215.871140 
	C89.689476,220.786041 93.043144,226.785126 96.965942,232.644226 
	C93.970299,232.998322 90.939720,233.000046 87.455170,232.996170 
z"/>
<path fill="#1F5A94" opacity="1.000000" stroke="none" 
	d="
M65.460953,232.985535 
	C61.087112,228.361008 57.221935,223.693115 53.214481,219.150742 
	C51.912228,217.674652 49.884602,216.770401 48.793365,215.187729 
	C43.231201,207.120667 35.422871,202.052795 26.373671,198.035782 
	C26.012522,194.302383 26.008400,190.610855 26.010014,186.458496 
	C30.356728,188.180588 35.223721,189.710541 38.922688,192.690399 
	C45.433475,197.935440 51.364025,203.933838 57.270733,209.881729 
	C60.266205,212.898087 62.038528,217.672409 65.503227,219.554779 
	C70.981995,222.531433 72.635567,227.424988 74.963913,232.620789 
	C71.973053,232.982498 68.943687,232.986725 65.460953,232.985535 
z"/>
<path fill="#A0BCCE" opacity="1.000000" stroke="none" 
	d="
M174.377716,49.999207 
	C174.587646,46.435013 176.927414,46.669956 179.759613,47.726303 
	C178.251099,48.666199 176.502960,49.332687 174.377716,49.999207 
z"/>
</svg>